<mxfile host="www.draw.io" modified="2019-11-23T18:50:34.310Z" agent="Mozilla/5.0 (X11; Ubuntu; Linux x86_64; rv:70.0) Gecko/20100101 Firefox/70.0" etag="6eep5LNsBxetFF_KCGyW" version="12.2.9" type="github" pages="1">
  <diagram id="HPz6r7OgjWPiZU7NnNXL" name="Page-1">
    <mxGraphModel dx="737" dy="459" grid="1" gridSize="10" guides="1" tooltips="1" connect="1" arrows="1" fold="1" page="1" pageScale="1" pageWidth="850" pageHeight="1100" math="0" shadow="0">
      <root>
        <mxCell id="0"/>
        <mxCell id="1" parent="0"/>
        <mxCell id="bmO4EKh-6QArlB46Ncg6-11" value="" style="edgeStyle=orthogonalEdgeStyle;rounded=0;orthogonalLoop=1;jettySize=auto;html=1;" parent="1" source="bmO4EKh-6QArlB46Ncg6-1" target="bmO4EKh-6QArlB46Ncg6-5" edge="1">
          <mxGeometry relative="1" as="geometry"/>
        </mxCell>
        <mxCell id="bmO4EKh-6QArlB46Ncg6-1" value="Conversion" style="rounded=1;whiteSpace=wrap;html=1;" parent="1" vertex="1">
          <mxGeometry x="230" y="120" width="120" height="60" as="geometry"/>
        </mxCell>
        <mxCell id="bmO4EKh-6QArlB46Ncg6-8" value="" style="edgeStyle=orthogonalEdgeStyle;rounded=0;orthogonalLoop=1;jettySize=auto;html=1;" parent="1" source="bmO4EKh-6QArlB46Ncg6-2" target="bmO4EKh-6QArlB46Ncg6-3" edge="1">
          <mxGeometry relative="1" as="geometry"/>
        </mxCell>
        <mxCell id="bmO4EKh-6QArlB46Ncg6-2" value="&lt;div&gt;Advanced &lt;br&gt;&lt;/div&gt;&lt;div&gt;Operations&lt;/div&gt;" style="rounded=1;whiteSpace=wrap;html=1;" parent="1" vertex="1">
          <mxGeometry x="50" y="20" width="120" height="60" as="geometry"/>
        </mxCell>
        <mxCell id="bmO4EKh-6QArlB46Ncg6-9" style="edgeStyle=orthogonalEdgeStyle;rounded=0;orthogonalLoop=1;jettySize=auto;html=1;exitX=0.5;exitY=1;exitDx=0;exitDy=0;entryX=0.5;entryY=0;entryDx=0;entryDy=0;" parent="1" source="bmO4EKh-6QArlB46Ncg6-3" target="bmO4EKh-6QArlB46Ncg6-6" edge="1">
          <mxGeometry relative="1" as="geometry"/>
        </mxCell>
        <mxCell id="bmO4EKh-6QArlB46Ncg6-10" style="edgeStyle=orthogonalEdgeStyle;rounded=0;orthogonalLoop=1;jettySize=auto;html=1;exitX=0.75;exitY=1;exitDx=0;exitDy=0;entryX=0.5;entryY=0;entryDx=0;entryDy=0;" parent="1" source="bmO4EKh-6QArlB46Ncg6-3" target="bmO4EKh-6QArlB46Ncg6-5" edge="1">
          <mxGeometry relative="1" as="geometry"/>
        </mxCell>
        <mxCell id="bmO4EKh-6QArlB46Ncg6-3" value="&lt;div&gt;Basic&lt;/div&gt;&lt;div&gt;Operations&lt;br&gt;&lt;/div&gt;" style="rounded=1;whiteSpace=wrap;html=1;" parent="1" vertex="1">
          <mxGeometry x="50" y="120" width="120" height="60" as="geometry"/>
        </mxCell>
        <mxCell id="bmO4EKh-6QArlB46Ncg6-14" style="edgeStyle=orthogonalEdgeStyle;rounded=0;orthogonalLoop=1;jettySize=auto;html=1;exitX=0.25;exitY=1;exitDx=0;exitDy=0;" parent="1" source="bmO4EKh-6QArlB46Ncg6-4" target="bmO4EKh-6QArlB46Ncg6-5" edge="1">
          <mxGeometry relative="1" as="geometry"/>
        </mxCell>
        <mxCell id="bmO4EKh-6QArlB46Ncg6-16" style="edgeStyle=orthogonalEdgeStyle;rounded=0;orthogonalLoop=1;jettySize=auto;html=1;entryX=0.5;entryY=0;entryDx=0;entryDy=0;" parent="1" source="bmO4EKh-6QArlB46Ncg6-4" target="bmO4EKh-6QArlB46Ncg6-7" edge="1">
          <mxGeometry relative="1" as="geometry"/>
        </mxCell>
        <mxCell id="bmO4EKh-6QArlB46Ncg6-4" value="Transformation" style="rounded=1;whiteSpace=wrap;html=1;" parent="1" vertex="1">
          <mxGeometry x="410" y="120" width="120" height="60" as="geometry"/>
        </mxCell>
        <mxCell id="bmO4EKh-6QArlB46Ncg6-18" style="edgeStyle=orthogonalEdgeStyle;rounded=0;orthogonalLoop=1;jettySize=auto;html=1;exitX=0.5;exitY=1;exitDx=0;exitDy=0;entryX=0.5;entryY=0;entryDx=0;entryDy=0;" parent="1" source="bmO4EKh-6QArlB46Ncg6-5" target="bmO4EKh-6QArlB46Ncg6-17" edge="1">
          <mxGeometry relative="1" as="geometry"/>
        </mxCell>
        <mxCell id="bmO4EKh-6QArlB46Ncg6-5" value="Data Definitions" style="rounded=1;whiteSpace=wrap;html=1;" parent="1" vertex="1">
          <mxGeometry x="230" y="220" width="120" height="60" as="geometry"/>
        </mxCell>
        <mxCell id="bmO4EKh-6QArlB46Ncg6-20" style="edgeStyle=orthogonalEdgeStyle;rounded=0;orthogonalLoop=1;jettySize=auto;html=1;exitX=0.5;exitY=1;exitDx=0;exitDy=0;entryX=0;entryY=0.5;entryDx=0;entryDy=0;" parent="1" source="bmO4EKh-6QArlB46Ncg6-6" target="bmO4EKh-6QArlB46Ncg6-17" edge="1">
          <mxGeometry relative="1" as="geometry"/>
        </mxCell>
        <object label="&lt;div&gt;Linear Solver&lt;/div&gt;&lt;div&gt;(external)&lt;/div&gt;" id="bmO4EKh-6QArlB46Ncg6-6">
          <mxCell style="rounded=1;whiteSpace=wrap;html=1;" parent="1" vertex="1">
            <mxGeometry x="50" y="220" width="120" height="60" as="geometry"/>
          </mxCell>
        </object>
        <mxCell id="bmO4EKh-6QArlB46Ncg6-19" style="edgeStyle=orthogonalEdgeStyle;rounded=0;orthogonalLoop=1;jettySize=auto;html=1;exitX=0.5;exitY=1;exitDx=0;exitDy=0;entryX=1;entryY=0.5;entryDx=0;entryDy=0;" parent="1" source="bmO4EKh-6QArlB46Ncg6-7" target="bmO4EKh-6QArlB46Ncg6-17" edge="1">
          <mxGeometry relative="1" as="geometry"/>
        </mxCell>
        <mxCell id="bmO4EKh-6QArlB46Ncg6-7" value="&lt;div&gt;Integral&lt;/div&gt;&lt;div&gt;(external)&lt;br&gt;&lt;/div&gt;" style="rounded=1;whiteSpace=wrap;html=1;" parent="1" vertex="1">
          <mxGeometry x="410" y="220" width="120" height="60" as="geometry"/>
        </mxCell>
        <mxCell id="bmO4EKh-6QArlB46Ncg6-17" value="&lt;div&gt;Infrastructure&lt;/div&gt;&lt;div&gt;(external)&lt;/div&gt;" style="rounded=1;whiteSpace=wrap;html=1;" parent="1" vertex="1">
          <mxGeometry x="230" y="310" width="120" height="60" as="geometry"/>
        </mxCell>
      </root>
    </mxGraphModel>
  </diagram>
</mxfile>
